<svg id="Layer_5" enable-background="new 0 0 64 64" height="512" viewBox="0 0 64 64" width="512" xmlns="http://www.w3.org/2000/svg"><g fill="#fcd770"><path d="m22 5c1.1 0 2 .9 2 2 0 .94-.66 1.74-1.55 1.95-.14.03-.29.05-.45.05-1.1 0-2-.9-2-2s.9-2 2-2z"/><path d="m9 22c0 .16-.02.31-.05.45-.21.89-1.01 1.55-1.95 1.55-1.1 0-2-.9-2-2s.9-2 2-2 2 .9 2 2z"/><path d="m57 40c1.1 0 2 .9 2 2s-.9 2-2 2-2-.9-2-2c0-.16.02-.31.05-.45.21-.89 1.01-1.55 1.95-1.55z"/><path d="m42 55c1.1 0 2 .9 2 2s-.9 2-2 2-2-.9-2-2c0-.94.66-1.74 1.55-1.95.14-.03.29-.05.45-.05z"/></g><path d="m32 45v3h-9v-2c-2.64-.23-4.54-2.77-3.87-5.58.03-.14.08-.28.13-.42h10.74c.38 0 .74.11 1.04.29.57.36.96.99.96 1.71z" fill="#5cd6b3"/><path d="m15 41.51c0 2.6 1.13 4.93 2.94 6.49h-15.94v-6c0-1.1.9-2 2-2h11.13c-.09.5-.13 1-.13 1.51z" fill="#5cd6b3"/><path d="m32 10v-6c0-1.1.9-2 2-2h26c1.1 0 2 .9 2 2v6z" fill="#5cd6b3"/><path d="m32 10h30v12c0 1.1-.9 2-2 2h-11.01c-.41-2.64-1.2-4.15-2.33-5.34-1.44-1.52-3.44-2.52-5.66-2.66v4c2.06.25 3.73 1.92 3.97 4h-10.31-.66c-1.1 0-2-.9-2-2v-1z" fill="#e6e9ed"/><path d="m2 60v-12h15.94.01c1.36 1.18 3.11 1.91 5.05 2v-2h9v12c0 1.1-.9 2-2 2h-26c-1.1 0-2-.9-2-2z" fill="#e6e9ed"/><path d="m18 54h10v4h-10z" fill="#ff826e"/><path d="m52 14h6v6h-6z" fill="#ff826e"/><path d="m48.99 24 .01.49c0 2.25-.89 4.4-2.49 6l-5.02 5.02c-1.06 1.06-2.36 1.81-3.78 2.19.19-.71.29-1.45.29-2.21 0-.72-.09-1.43-.27-2.1h.01c.33-.19.64-.43.92-.7l4.96-4.97c.6-.6 1.06-1.33 1.25-2.14.13-.54.15-1.07.1-1.58-.24-2.08-1.91-3.75-3.97-4v-4c2.22.14 4.22 1.14 5.66 2.66 1.13 1.19 1.92 2.7 2.33 5.34z" fill="#fcd770"/><path d="m15.13 40c.11-.59.28-1.18.51-1.73.43-1.02 1.05-1.96 1.85-2.76l6.02-6.02c1.06-1.06 2.36-1.81 3.78-2.19-.19.71-.29 1.45-.29 2.21 0 .72.09 1.43.27 2.1h-.01c-.33.19-.64.43-.92.7 0 0-4.32 4.33-5.97 5.97-.49.49-.88 1.08-1.11 1.72-.05.14-.1.28-.13.42-.67 2.81 1.23 5.35 3.87 5.58v2 2c-1.94-.09-3.69-.82-5.05-2h-.01c-1.81-1.56-2.94-3.89-2.94-6.49 0-.51.04-1.01.13-1.51z" fill="#fcd770"/><path d="m32 22c0 1.1.9 2 2 2h.66l-2.29 2.29c-.29.29-.55.62-.77.97-.21.36-.37.74-.47 1.15-.48 2 .39 3.86 1.89 4.85l.01.01c.58.59.97 1.37.97 2.19 0 .37-.04.76-.14 1.15-.1.4-.26.78-.46 1.13h-.01c-1.83-.46-3.43-1.53-4.57-2.98l-1.55-3.15c-.18-.67-.27-1.38-.27-2.1 0-.76.1-1.5.29-2.21.38-1.42 1.13-2.72 2.2-3.79l2.51-2.51z" fill="#fcd770"/><path d="m37.71 37.7c-.38 1.42-1.13 2.72-2.2 3.79l-3.51 3.51v-3c0-.72-.39-1.35-.96-1.71l.3-.29 1.29-1.29c.29-.29.55-.61.77-.97.2-.35.36-.73.46-1.13.1-.39.14-.78.14-1.15 0-.82-.39-1.6-.97-2.19l-.01-.01c-1.5-.99-2.37-2.85-1.89-4.85.1-.41.26-.79.47-1.15h.01c1.83.46 3.43 1.53 4.57 2.98l1.55 3.15c.18.67.27 1.38.27 2.1 0 .76-.1 1.5-.29 2.21z" fill="#fcd770"/><path d="m60 1h-26c-1.654 0-3 1.346-3 3v16.586l-2.222 2.222c-1.059 1.059-1.828 2.328-2.287 3.709-1.382.467-2.651 1.229-3.683 2.262l-6.029 6.029c-1.182 1.182-2.004 2.623-2.434 4.192h-10.345c-1.654 0-3 1.346-3 3v18c0 1.654 1.346 3 3 3h26c1.654 0 3-1.346 3-3v-14.586l3.222-3.222c1.059-1.059 1.828-2.328 2.287-3.709 1.382-.466 2.651-1.229 3.683-2.262l5.029-5.029c1.669-1.67 2.628-3.853 2.753-6.192h10.026c1.654 0 3-1.346 3-3v-18c0-1.654-1.346-3-3-3zm-26 2h26c.551 0 1 .448 1 1v5h-28v-5c0-.552.449-1 1-1zm-.711 23.782 1.782-1.782h8.872c-.016.115-.018.23-.045.346-.139.587-.478 1.163-.98 1.666l-4.7 4.7c-.946-2.185-2.694-3.964-4.929-4.93zm-3.097-2.56 1.048-1.048c.27.633.759 1.144 1.364 1.465l-.939.939c-.758.758-1.278 1.657-1.505 2.6-.543 2.265.324 4.548 2.212 5.852.403.438.625.944.628 1.435.001.303-.035.609-.109.911-.01.041-.028.082-.041.123-2.886-1.087-4.85-3.837-4.85-6.984 0-1.999.779-3.879 2.192-5.293zm-7.107 20.782c-.969-.083-1.854-.585-2.428-1.378-.546-.753-.741-1.676-.601-2.626h9.944c.551 0 1 .448 1 1v5h-7v-1.918zm7.713-5.882c-.256-.072-.52-.122-.798-.122h-8.928c.003-.003.004-.005.007-.008l5.703-5.704c.946 2.184 2.694 3.963 4.927 4.929zm-12.606-2.9 6.029-6.029c.532-.532 1.147-.967 1.809-1.316-.013.211-.03.423-.03.638 0 .559.05 1.109.144 1.645-.178.139-.348.288-.508.447l-5.971 5.972c-.762.762-1.284 1.666-1.509 2.615-.384 1.622-.063 3.301.881 4.605.731 1.01 1.78 1.725 2.963 2.038v2.043c-3.438-.653-6-3.706-6-7.365 0-1.999.779-3.879 2.192-5.293zm-14.192 4.778h10.025c-.009.171-.025.342-.025.515 0 .506.049 1 .124 1.485h-1.124v2h1.653c.277.714.641 1.383 1.073 2h-12.726v-5c0-.552.449-1 1-1zm26 20h-26c-.551 0-1-.448-1-1v-11h14.611c1.483 1.171 3.322 1.909 5.344 1.999l1.045.047v-2.046h7v11c0 .552-.449 1-1 1zm4.808-20.222-1.808 1.808v-.586c0-.636-.202-1.224-.541-1.71l.882-.875c.748-.748 1.264-1.634 1.492-2.563.113-.461.169-.932.167-1.398-.006-1.032-.45-2.054-1.272-2.899l-.156-.127c-1.245-.823-1.821-2.308-1.467-3.782.012-.048.032-.095.046-.142 2.886 1.084 4.849 3.834 4.849 6.981 0 1.999-.779 3.879-2.192 5.293zm11-11-5.029 5.029c-.532.532-1.147.967-1.809 1.316.013-.211.03-.423.03-.638 0-.559-.05-1.109-.144-1.645.178-.139.348-.287.508-.447l4.968-4.968c.764-.766 1.287-1.671 1.512-2.619.371-1.564.072-3.147-.842-4.455-.736-1.054-1.8-1.813-3.002-2.164v-2.047c3.438.711 6 3.754 6 7.346 0 1.998-.779 3.878-2.192 5.292zm14.192-6.778h-10.127c-.687-4.321-4.305-7.719-8.811-7.998l-1.062-.066v5.952l.882.105c.991.118 1.896.666 2.48 1.503.112.16.196.332.279.504h-9.641c-.551 0-1-.448-1-1v-11h28v11c0 .552-.449 1-1 1z"/><path d="m35 5h2v2h-2z"/><path d="m43 5h2v2h-2z"/><path d="m39 5h2v2h-2z"/><path d="m9 43h2v2h-2z"/><path d="m5 43h2v2h-2z"/><path d="m56 54.586-6.293-6.293-1.414 1.414 6.293 6.293h-5.586v2h9v-9h-2z"/><path d="m39.707 39.707h2v2h-2z" transform="matrix(.707 -.707 .707 .707 -16.861 40.707)"/><path d="m42.536 42.535h2v2h-2z" transform="matrix(.707 -.707 .707 .707 -18.033 43.536)"/><path d="m45.328 45.379h2v1.899h-2z" transform="matrix(.707 -.707 .707 .707 -19.19 46.34)"/><path d="m57 39c-1.061 0-1.99.557-2.524 1.391l-10.251-2.366-.45 1.949 10.26 2.368c.172 1.492 1.428 2.658 2.965 2.658 1.654 0 3-1.346 3-3s-1.346-3-3-3zm0 4c-.551 0-1-.448-1-1s.449-1 1-1 1 .448 1 1-.449 1-1 1z"/><path d="m42.342 54.035-2.368-10.259-1.949.449 2.366 10.252c-.834.533-1.391 1.462-1.391 2.523 0 1.654 1.346 3 3 3s3-1.346 3-3c0-1.537-1.166-2.793-2.658-2.965zm-.342 3.965c-.551 0-1-.448-1-1s.449-1 1-1 1 .448 1 1-.449 1-1 1z"/><path d="m8 9.414 6.293 6.293 1.414-1.414-6.293-6.293h5.586v-2h-9v9h2z"/><path d="m22.293 22.293h2v2h-2z" transform="matrix(.707 -.707 .707 .707 -9.648 23.293)"/><path d="m19.464 19.465h2v2h-2z" transform="matrix(.707 -.707 .707 .707 -8.477 20.465)"/><path d="m16.672 16.722h2v1.899h-2z" transform="matrix(.707 -.707 .707 .707 -7.32 17.676)"/><path d="m7 25c1.061 0 1.99-.557 2.524-1.391l10.251 2.366.45-1.949-10.26-2.368c-.172-1.492-1.428-2.658-2.965-2.658-1.654 0-3 1.346-3 3s1.346 3 3 3zm0-4c.551 0 1 .448 1 1s-.449 1-1 1-1-.448-1-1 .449-1 1-1z"/><path d="m21.658 9.965 2.368 10.259 1.949-.449-2.366-10.251c.834-.534 1.391-1.463 1.391-2.524 0-1.654-1.346-3-3-3s-3 1.346-3 3c0 1.537 1.166 2.793 2.658 2.965zm.342-3.965c.551 0 1 .448 1 1s-.449 1-1 1-1-.448-1-1 .449-1 1-1z"/><path d="m35 13h2v2h-2z"/><path d="m35 17h2v2h-2z"/><path d="m51 21h8v-8h-8zm2-6h4v4h-4z"/><path d="m5 53h10v2h-10z"/><path d="m5 57h10v2h-10z"/><path d="m17 59h12v-6h-12zm2-4h8v2h-8z"/></svg>